<?xml version="1.0" encoding="UTF-8"?><svg id="b" xmlns="http://www.w3.org/2000/svg" width="432.579" height="89.064" xmlns:xlink="http://www.w3.org/1999/xlink" viewBox="0 0 432.579 89.064"><defs><linearGradient id="d" x1="-288.366" y1="-100.207" x2="-287.366" y2="-100.383" gradientTransform="translate(46811.0341 -8745.4211) scale(161.3917 -87.635)" gradientUnits="userSpaceOnUse"><stop offset="0" stop-color="#3b82f6"/><stop offset="1" stop-color="#06b6d4"/></linearGradient></defs><g id="c"><path d="M142.893,18.862c-8.526-.457-16.368-.143-24.608-.137-6.294.005-11.904,2.923-16.16,7.386-6.021,6.314-8.108,14.875-6.366,23.577,2.07,10.336,10.598,19.889,21.751,19.943l58.831.279c1.655.008,3.433.792,3.449,2.706l.099,12.061c.014,1.676-1.267,3.256-3.164,3.251l-60.06-.139c-10.339-.024-19.849-4.854-27.138-11.817-13.622-13.015-17.667-33.076-9.763-50.319C86.144,11.736,99.94,1.524,115.391.614c9.524-.561,18.449-.169,27.907-.088,8.706.075,16.661,3.865,23.086,9.591,8.304,7.4,12.877,17.915,13.407,29.047l.05,12.422c.011,2.033-1.508,3.402-3.601,3.402l-65.506-.019c-2.263,0-3.732-1.64-3.733-3.73l-.004-10.574c0-2.5,1.674-4.047,4.134-4.048l49.668-.008c-.931-9.111-8.298-17.232-17.907-17.747h0Z" fill="#0f1826"/><path d="M35.846,18.826c-9.09.053-17.114,7.822-17.148,16.813l-.182,49.333c-.006,1.599-1.191,2.956-2.852,2.956l-12.853-.003c-1.652,0-2.877-1.315-2.808-2.96l.023-51.849C1.791,14.859,16.814.236,35.347.2l34.557-.068c1.989-.004,3.288,1.401,3.287,3.313l-.004,11.934c0,1.896-1.416,3.237-3.272,3.248l-34.07.199h0Z" fill="#0f1826"/><path d="M281.708,1.527c-.357-.511-1.554-1.22-2.226-1.209h-15.459c-1.208.031-2.405,1.227-2.854,2.223l-28.904,64.061c-.45.997-1.032,1.776-1.866,1.944-.039.008-.081.012-.126.014-.045-.002-.087-.006-.126-.014-.834-.168-1.416-.947-1.866-1.944L199.378,2.541c-.449-.996-1.647-2.193-2.854-2.223h-15.459c-.672-.011-1.869.698-2.226,1.209-.359.514-.58,1.863-.229,2.617l33.671,72.394c3.288,7.069,9.024,11.941,16.792,12.483.4.028.8.04,1.2.043.4-.003.801-.015,1.2-.043,7.768-.542,13.504-5.415,16.792-12.483L281.937,4.144c.351-.754.13-2.104-.229-2.617Z" fill="#0f1826"/><path d="M432.094,57.94c-1.267-6.407-4.824-11.651-10.093-14.947,6.813-7.55,8.61-18.277,4.527-27.831-3.952-9.247-12.16-15.013-21.421-15.049L366.663,0c-1.171-.008-2.263.586-2.898,1.58-.635.994-.717,2.225-.218,3.294l5.179,11.086c.559,1.197,1.774,1.972,3.096,1.975l30.398.037c3.052.005,5.931,2.386,7.197,4.735,1.6,2.967,1.535,6.135-.188,9.16-1.387,2.434-4.135,5.037-7.689,5.043l-23.746.041c-2.368.004-4.297,1.933-4.301,4.301l-.016,9.513c-.002,1.153.441,2.259,1.215,3.036.735.737,1.732,1.144,2.807,1.145l27.109.024c3.164.003,6.004,1.122,7.996,3.153,2.056,2.095,2.613,4.774,1.528,7.348-.722,1.715-3.062,4.09-5.575,4.091l-112.343.034h-.002c-2.775,0-5.32-1.435-6.643-3.745-1.753-3.061-.175-6.307,2.033-8.026,2.659-2.071,6.124-3.126,10.299-3.137l30.051-.08c9.475-.025,18.173-5.449,22.699-14.154,4.239-8.153,4.63-17.136,1.101-25.295-3.925-9.075-12.411-14.979-21.624-15.04l-29.687-.094h-.01c-1.325,0-2.542.774-3.103,1.975l-5.142,11.007c-.497,1.064-.418,2.292.211,3.284s1.706,1.586,2.881,1.589l32.274.094c4.568.024,7.723,4.175,8.134,8.174.276,2.685-.728,5.663-2.618,7.773-1.616,1.803-3.707,2.805-5.888,2.82l-30.069.212c-6.527.046-13.437,2.413-18.959,6.493-3.746,2.768-6.698,6.225-8.539,9.996-2.025,4.149-2.804,8.717-2.253,13.208.811,6.618,4.484,12.586,10.078,16.375,4.58,3.102,9.735,4.61,15.759,4.61h.007l111.135-.018c7.193,0,13.887-3.04,18.363-8.337,4.877-5.77,6.892-13.747,5.39-21.338l.002-.002Z" fill="url(#d)"/></g></svg>